<?xml version="1.0" encoding="UTF-8"?>
<svg id="Layer_1" data-name="Layer 1" xmlns="http://www.w3.org/2000/svg" viewBox="0 0 231.65 250.51">
  <defs>
    <style>
      .cls-1 {
        fill: #fff200;
      }

      .cls-1, .cls-2, .cls-3, .cls-4 {
        stroke-width: 0px;
      }

      .cls-2 {
        fill: #fff;
      }

      .cls-3 {
        fill: #231f20;
      }

      .cls-4 {
        fill: #2e3192;
      }
    </style>
  </defs>
  <rect class="cls-4" width="231.65" height="250.51"/>
  <path class="cls-1" d="M21.55,96.97c-.29-11.55,36.28-29.31,49.49-16.84,7.43,7.02,7.26,23.41-.34,30.98-13.55,13.51-48.88-2.92-49.16-14.14Z"/>
  <path class="cls-1" d="M209.43,96.97c.3-11.55-37.42-29.31-51.05-16.84-7.67,7.02-7.48,23.41.35,30.98,13.98,13.51,50.41-2.92,50.7-14.14Z"/>
  <circle class="cls-3" cx="49.42" cy="92.74" r="3.29"/>
  <circle class="cls-3" cx="179.63" cy="92.74" r="3.29" transform="translate(69.64 262.36) rotate(-84.35)"/>
  <path class="cls-3" d="M46.8,142.09c-5.36,4.51-17.33,14.87-21.55,32.32-4.39,18.14-.34,43.67,13.8,50.51,18.49,8.94,34.46-23.62,68.35-21.89,32.46,1.66,42.59,32.8,63.64,26.94,18.04-5.03,31.21-33.67,25.59-56.9-4.26-17.63-18.18-27.35-26.26-33-35.23-24.61-90.69-25.67-123.57,2.02Z"/>
  <path class="cls-2" d="M81.89,208.35c-.11-1.4-.61-2.72-1.09-4.05-7.22-20.22-3.1-29.46-8.32-31.6-6.5-2.66-20.12,8.69-22.86,21.18-1.69,7.66.74,15.59,1.33,17.52.97,3.18,1.46,4.76,2.88,6.17,1.68,1.65,4.1,2.58,6.84,2.9"/>
  <path class="cls-2" d="M76.51,216.73c2.56-1.64,4.48-3.7,5.14-6.02.24-.83.29-1.61.24-2.37"/>
  <path class="cls-2" d="M60.67,220.46c1.29.15,2.66.17,4.04.07"/>
  <path class="cls-4" d="M77.14,217.53c3.22,0,3.22-5,0-5s-3.22,5,0,5h0Z"/>
  <path class="cls-4" d="M80.59,216.57c3.22,0,3.22-5,0-5s-3.22,5,0,5h0Z"/>
  <path class="cls-4" d="M80.59,216.57c3.22,0,3.22-5,0-5s-3.22,5,0,5h0Z"/>
  <path class="cls-4" d="M80.59,216.57c3.22,0,3.22-5,0-5s-3.22,5,0,5h0Z"/>
  <path class="cls-4" d="M82.98,213.7c3.22,0,3.22-5,0-5s-3.22,5,0,5h0Z"/>
  <path class="cls-4" d="M83.46,213.31c3.22,0,3.22-5,0-5s-3.22,5,0,5h0Z"/>
  <path class="cls-4" d="M83.18,213.31c3.22,0,3.22-5,0-5s-3.22,5,0,5h0Z"/>
  <path class="cls-4" d="M82.03,214.75c3.22,0,3.22-5,0-5s-3.22,5,0,5h0Z"/>
  <path class="cls-4" d="M83.75,212.93c3.22,0,3.22-5,0-5s-3.22,5,0,5h0Z"/>
  <path class="cls-4" d="M83.27,213.22c3.22,0,3.22-5,0-5s-3.22,5,0,5h0Z"/>
  <path class="cls-4" d="M63.83,224.23c3.22,0,3.22-5,0-5s-3.22,5,0,5h0Z"/>
  <path class="cls-4" d="M62.97,224.9c3.22,0,3.22-5,0-5s-3.22,5,0,5h0Z"/>
</svg>